<svg width="2172" height="1916" viewBox="0 0 2172 1916" fill="none" xmlns="http://www.w3.org/2000/svg">
<g filter="url(#filter0_i_2307_1405)">
<ellipse cx="1086" cy="1533" rx="1036" ry="333" fill="black"/>
</g>
<path d="M1086 1175C1373.95 1175 1635.65 1212.48 1826.21 1273.73C1921.35 1304.31 2000.16 1341.26 2055.71 1383.48C2110.87 1425.4 2147 1475.68 2147 1533C2147 1590.32 2110.87 1640.6 2055.71 1682.52C2000.16 1724.74 1921.35 1761.69 1826.21 1792.27C1635.65 1853.52 1373.95 1891 1086 1891C798.052 1891 536.35 1853.52 345.787 1792.27C250.647 1761.69 171.84 1724.74 116.288 1682.52C61.128 1640.6 25 1590.32 25 1533C25 1475.68 61.128 1425.4 116.288 1383.48C171.84 1341.26 250.647 1304.31 345.787 1273.73C536.35 1212.48 798.052 1175 1086 1175Z" stroke="black" stroke-width="50"/>
<path d="M120.558 662.134L606.446 884.566V1791.31C606.446 1791.31 667.676 1869 1080.06 1869C1492.45 1869 1545.23 1791.31 1545.23 1791.31V728.687C1545.23 721.345 1550.83 715.394 1557.73 715.394H1607.26C1610.49 715.394 1613.54 714.141 1614.72 710.94C1632.96 661.338 1626.3 280.422 1540.81 163.668C1467.65 63.7245 1422.97 48.4729 1265.15 29.5667C1100.79 9.88726 888.38 77.8515 865.05 82.4199C841.897 86.9411 799.94 97.8641 739.212 115.121C737.954 115.478 736.639 115.629 735.339 115.559L297.877 92.0865C286.169 91.4583 280.162 106.773 288.819 115.179L481.003 301.793C488.883 309.444 484.706 323.401 474.116 324.801L352.179 340.915C341.068 342.383 337.237 357.452 346.139 364.675L481.305 474.343C489.142 480.701 487.298 493.753 478.051 497.383L121.172 637.453C110.581 641.61 110.188 657.387 120.558 662.134Z" fill="white"/>
<path d="M610.085 1793.44C611.803 1630.82 611.275 991.492 609.821 885.517C604.071 479.701 609.821 274.05 625.484 223.63C641.147 173.21 667.435 133.426 737.305 115.755" fill="white"/>
<path d="M606.446 885.605L120.558 662.904C110.188 658.151 110.581 642.355 121.172 638.193L478.051 497.953C487.298 494.319 489.142 481.252 481.305 474.886L346.139 365.085C337.237 357.853 341.068 342.766 352.179 341.296L474.116 325.162C484.706 323.761 488.883 309.787 481.003 302.126L288.819 115.287C280.162 106.871 286.169 91.5375 297.877 92.1665L735.339 115.667C736.639 115.737 737.954 115.586 739.212 115.229C799.94 97.9511 841.897 87.0148 865.05 82.4882C888.38 77.9142 1100.79 9.86776 1265.15 29.571C1422.97 48.5001 1467.65 63.7701 1540.81 163.834C1626.3 280.73 1632.96 662.107 1614.72 711.769C1613.54 714.974 1610.49 716.228 1607.26 716.228H1557.73C1550.83 716.228 1545.23 722.187 1545.23 729.537V1793.44C1545.23 1793.44 1570.84 1869 1077.66 1869C635.687 1869 610.085 1793.44 610.085 1793.44C611.803 1630.82 611.275 991.492 609.821 885.517C604.071 479.701 609.821 274.05 625.484 223.63C641.147 173.21 667.435 133.426 737.305 115.755" stroke="black" stroke-width="50.4669" stroke-linecap="round" stroke-linejoin="round"/>
<path d="M1283.41 720.148L1141.1 1126.53L981 718.902L1283.41 720.148Z" stroke="black" stroke-width="50.4669" stroke-linecap="round" stroke-linejoin="round"/>
<path d="M1564 718H1560.52H908" stroke="black" stroke-width="50.4669" stroke-linecap="round" stroke-linejoin="round"/>
<path d="M980.657 615.313C964.468 613.853 955.582 604.967 954 588.657C955.582 572.468 964.468 563.582 980.657 562C996.967 563.582 1005.85 572.468 1007.31 588.657C1005.85 604.967 996.967 613.853 980.657 615.313Z" fill="black"/>
<path d="M1494.66 615.313C1478.47 613.853 1469.58 604.967 1468 588.657C1469.58 572.468 1478.47 563.582 1494.66 562C1510.97 563.582 1519.85 572.468 1521.31 588.657C1519.85 604.967 1510.97 613.853 1494.66 615.313Z" fill="black"/>
<defs>
<filter id="filter0_i_2307_1405" x="0" y="1150" width="2172" height="770" filterUnits="userSpaceOnUse" color-interpolation-filters="sRGB">
<feFlood flood-opacity="0" result="BackgroundImageFix"/>
<feBlend mode="normal" in="SourceGraphic" in2="BackgroundImageFix" result="shape"/>
<feColorMatrix in="SourceAlpha" type="matrix" values="0 0 0 0 0 0 0 0 0 0 0 0 0 0 0 0 0 0 127 0" result="hardAlpha"/>
<feOffset dy="140"/>
<feGaussianBlur stdDeviation="2"/>
<feComposite in2="hardAlpha" operator="arithmetic" k2="-1" k3="1"/>
<feColorMatrix type="matrix" values="0 0 0 0 1 0 0 0 0 1 0 0 0 0 1 0 0 0 1 0"/>
<feBlend mode="normal" in2="shape" result="effect1_innerShadow_2307_1405"/>
</filter>
</defs>
</svg>
